<?xml version="1.0" encoding="utf-8"?>
<!-- Generator: Adobe Illustrator 25.2.3, SVG Export Plug-In . SVG Version: 6.00 Build 0)  -->
<svg version="1.1" id="Calque_1" xmlns="http://www.w3.org/2000/svg" xmlns:xlink="http://www.w3.org/1999/xlink" x="0px" y="0px"
	 viewBox="0 0 150 150" style="enable-background:new 0 0 150 150;" xml:space="preserve">
<style type="text/css">
	.st0{fill:url(#SVGID_1_);}
</style>
<g>
	<g>
		<path d="M53.2,67.8h3.7L51,82.2h-3.5l-5.9-14.3h3.7l1.9,4.9l2,5.6l2.1-5.6L53.2,67.8z"/>
		<path d="M57.7,70.6c-0.3-0.3-0.5-0.7-0.5-1.2c0-0.5,0.2-0.9,0.5-1.3c0.3-0.3,0.8-0.5,1.3-0.5c0.5,0,1,0.2,1.3,0.5
			c0.3,0.3,0.5,0.8,0.5,1.3c0,0.5-0.2,0.9-0.5,1.2c-0.3,0.3-0.8,0.5-1.4,0.5C58.5,71.1,58,70.9,57.7,70.6z M57.4,72.1h3.2v10.1h-3.2
			V72.1z"/>
		<path d="M69.8,72.1h3.4L69,82.2h-3.3l-4.3-10.1h3.5l1.2,3.1l1.2,3.7l1.2-3.7L69.8,72.1z"/>
		<path d="M84.2,72.1v10.1h-2.8L81.2,81c-0.9,0.9-2,1.4-3.4,1.4c-0.9,0-1.8-0.2-2.5-0.7c-0.7-0.4-1.3-1.1-1.7-1.9
			c-0.4-0.8-0.6-1.7-0.6-2.7c0-1,0.2-1.9,0.6-2.7c0.4-0.8,1-1.4,1.7-1.9c0.7-0.4,1.6-0.7,2.5-0.7c0.7,0,1.3,0.1,1.9,0.4
			s1.1,0.6,1.5,1l0.2-1.2H84.2z M80.3,79c0.4-0.5,0.7-1.1,0.7-1.8s-0.2-1.4-0.7-1.8s-1-0.7-1.7-0.7s-1.3,0.2-1.7,0.7
			s-0.7,1.1-0.7,1.8s0.2,1.4,0.7,1.8c0.4,0.5,1,0.7,1.7,0.7C79.3,79.7,79.9,79.4,80.3,79z"/>
		<path d="M96.2,67.8h3.7L94,82.2h-3.5l-5.9-14.3h3.7l1.9,4.9l2,5.6l2.1-5.6L96.2,67.8z"/>
		<path d="M107.1,72.5c0.8,0.4,1.4,1,1.8,1.8s0.7,1.6,0.7,2.7c0,0.3,0,0.7-0.1,1.2h-7.4c0.1,0.5,0.4,0.9,0.8,1.3s1.1,0.5,1.8,0.5
			c0.5,0,1-0.1,1.5-0.2c0.5-0.2,0.9-0.4,1.2-0.6l1.7,1.8c-0.6,0.5-1.2,0.9-2,1.2s-1.6,0.4-2.5,0.4c-1.2,0-2.2-0.2-3.1-0.7
			s-1.5-1-2-1.8c-0.5-0.8-0.7-1.7-0.7-2.8c0-1,0.2-2,0.7-2.8c0.5-0.8,1.1-1.4,1.9-1.9c0.8-0.4,1.8-0.7,2.8-0.7
			C105.3,71.8,106.3,72,107.1,72.5z M102.8,74.9c-0.4,0.3-0.6,0.8-0.7,1.4h4.5c0-0.6-0.3-1-0.7-1.4s-0.9-0.5-1.6-0.5
			C103.7,74.4,103.2,74.5,102.8,74.9z"/>
		<path d="M118,72.1c0.5,0.2,0.9,0.4,1.2,0.8l-1.3,2.3c-0.3-0.2-0.6-0.3-0.8-0.4s-0.5-0.1-0.8-0.1c-0.7,0-1.2,0.2-1.6,0.7
			s-0.6,1.1-0.6,1.9v4.9h-3.2V72.1h2.8l0.2,1.3c0.7-1,1.6-1.5,2.7-1.5C117.1,71.8,117.6,71.9,118,72.1z"/>
		<path d="M119,81.1l1.2-2.2c0.5,0.3,1.1,0.5,1.7,0.7c0.7,0.2,1.3,0.2,1.9,0.2c0.9,0,1.3-0.2,1.3-0.7c0-0.2-0.1-0.4-0.4-0.6
			s-0.7-0.2-1.2-0.2c-1.3-0.1-2.3-0.4-3.1-1c-0.8-0.6-1.1-1.3-1.1-2.2c0-1,0.4-1.8,1.2-2.4c0.8-0.6,1.9-0.9,3.3-0.9
			c0.8,0,1.6,0.1,2.3,0.3c0.7,0.2,1.3,0.5,1.9,0.8l-1.2,2.2c-0.8-0.4-1.7-0.7-2.7-0.7c-1,0-1.6,0.2-1.6,0.7c0,0.2,0.1,0.4,0.3,0.5
			s0.6,0.2,1.1,0.2c1.4,0.1,2.6,0.4,3.3,1c0.8,0.6,1.1,1.3,1.1,2.3c0,1-0.4,1.8-1.2,2.4c-0.8,0.6-2,0.9-3.5,0.9
			C121.9,82.4,120.3,82,119,81.1z"/>
		<path d="M137.2,72.5c0.8,0.4,1.4,1,1.9,1.8c0.4,0.8,0.6,1.6,0.6,2.7c0,0.3,0,0.7-0.1,1.2h-7.4c0.1,0.5,0.4,0.9,0.8,1.3
			c0.5,0.3,1.1,0.5,1.8,0.5c0.5,0,1-0.1,1.5-0.2c0.5-0.2,0.9-0.4,1.2-0.6l1.7,1.8c-0.6,0.5-1.2,0.9-2,1.2s-1.6,0.4-2.5,0.4
			c-1.2,0-2.2-0.2-3.1-0.7s-1.5-1-2-1.8c-0.5-0.8-0.7-1.7-0.7-2.8c0-1,0.2-2,0.7-2.8c0.5-0.8,1.1-1.4,1.9-1.9
			c0.8-0.4,1.8-0.7,2.9-0.7C135.4,71.8,136.4,72,137.2,72.5z M132.8,74.9c-0.4,0.3-0.6,0.8-0.7,1.4h4.5c0-0.6-0.3-1-0.6-1.4
			s-0.9-0.5-1.6-0.5C133.8,74.4,133.2,74.5,132.8,74.9z"/>
	</g>
	<g>
		<polygon points="19.9,61.6 18.5,66 17.6,63 		"/>
		<polygon points="30.3,87 28,88.4 29.5,84 		"/>
		
			<linearGradient id="SVGID_1_" gradientUnits="userSpaceOnUse" x1="17.1351" y1="88.7952" x2="30.7549" y2="65.2048" gradientTransform="matrix(1 0 0 -1 0 152)">
			<stop  offset="0" style="stop-color:#29ABE2"/>
			<stop  offset="0.255" style="stop-color:#22A2DC"/>
			<stop  offset="0.6775" style="stop-color:#1088CB"/>
			<stop  offset="0.9944" style="stop-color:#0071BC"/>
		</linearGradient>
		<path class="st0" d="M29.5,68.1L36,83.8c1-0.6,1.6-1.6,1.6-2.8V69c0-1.2-0.6-2.2-1.6-2.8L27,61l-8.6,20.9l-6.4-15.7
			c-1,0.6-1.6,1.6-1.6,2.8v12c0,1.2,0.6,2.2,1.6,2.8l8.9,5.2L29.5,68.1z"/>
	</g>
</g>
</svg>
