<?xml version="1.0" encoding="utf-8"?>
<!-- Generator: Adobe Illustrator 25.2.3, SVG Export Plug-In . SVG Version: 6.00 Build 0)  -->
<svg version="1.1" id="Calque_1" xmlns="http://www.w3.org/2000/svg" xmlns:xlink="http://www.w3.org/1999/xlink" x="0px" y="0px"
	 viewBox="0 0 150 150" style="enable-background:new 0 0 150 150;" xml:space="preserve">
<style type="text/css">
	.st0{fill:#FFFFFF;}
	.st1{fill:url(#SVGID_1_);}
</style>
<g>
	<g>
		<path class="st0" d="M50.35,66.9h4.19l-6.67,16.22h-4.01L37.19,66.9h4.19l2.18,5.52l2.29,6.3l2.34-6.3L50.35,66.9z"/>
		<path class="st0" d="M55.41,69.98c-0.39-0.37-0.59-0.84-0.59-1.41c0-0.59,0.2-1.07,0.6-1.44c0.4-0.37,0.91-0.56,1.53-0.56
			c0.62,0,1.13,0.19,1.53,0.56c0.4,0.37,0.6,0.85,0.6,1.44c0,0.57-0.2,1.04-0.59,1.41s-0.91,0.56-1.54,0.56
			C56.32,70.54,55.81,70.35,55.41,69.98z M55.12,71.67h3.64v11.45h-3.64V71.67z"/>
		<path class="st0" d="M69.14,71.67h3.87l-4.84,11.45h-3.71L59.6,71.67h3.96l1.37,3.45l1.41,4.15l1.41-4.15L69.14,71.67z"/>
		<path class="st0" d="M85.41,71.67v11.45h-3.15l-0.23-1.37c-0.97,1.07-2.24,1.6-3.8,1.6c-1.07,0-2.01-0.25-2.84-0.75
			c-0.83-0.5-1.47-1.2-1.93-2.11c-0.46-0.9-0.7-1.93-0.7-3.09s0.23-2.19,0.7-3.09c0.46-0.9,1.11-1.61,1.93-2.11
			c0.83-0.5,1.77-0.75,2.84-0.75c0.77,0,1.48,0.14,2.13,0.41c0.65,0.27,1.2,0.66,1.67,1.17l0.23-1.34H85.41z M81.05,79.5
			c0.51-0.53,0.76-1.23,0.76-2.1c0-0.86-0.25-1.56-0.76-2.1s-1.17-0.8-1.97-0.8c-0.8,0-1.46,0.27-1.96,0.81
			c-0.5,0.54-0.75,1.24-0.75,2.09c0,0.85,0.25,1.55,0.75,2.09c0.5,0.54,1.15,0.81,1.96,0.81C79.89,80.29,80.54,80.03,81.05,79.5z"/>
		<path class="st0" d="M98.97,66.9h4.19l-6.67,16.22h-4.01L85.8,66.9H90l2.18,5.52l2.29,6.3l2.34-6.3L98.97,66.9z"/>
		<path class="st0" d="M111.34,72.13c0.91,0.47,1.61,1.14,2.1,1.99c0.49,0.86,0.73,1.86,0.73,3c0,0.37-0.04,0.83-0.12,1.37h-8.41
			c0.11,0.59,0.42,1.06,0.95,1.43c0.52,0.36,1.2,0.54,2.02,0.54c0.57,0,1.13-0.08,1.67-0.25c0.54-0.17,1-0.41,1.39-0.72l1.9,2.04
			c-0.65,0.6-1.42,1.07-2.31,1.39c-0.89,0.32-1.83,0.49-2.84,0.49c-1.33,0-2.48-0.24-3.45-0.73c-0.97-0.49-1.72-1.18-2.25-2.07
			c-0.53-0.9-0.79-1.95-0.79-3.17c0-1.17,0.26-2.22,0.78-3.13c0.52-0.91,1.24-1.62,2.17-2.12c0.93-0.5,2-0.75,3.22-0.75
			C109.35,71.42,110.43,71.66,111.34,72.13z M106.44,74.85c-0.46,0.37-0.71,0.89-0.78,1.55h5.05c-0.05-0.66-0.29-1.18-0.73-1.55
			c-0.44-0.37-1.03-0.56-1.77-0.56C107.49,74.29,106.89,74.48,106.44,74.85z"/>
		<path class="st0" d="M123.69,71.71c0.52,0.19,0.98,0.48,1.37,0.85l-1.53,2.66c-0.32-0.2-0.63-0.35-0.9-0.44
			c-0.28-0.09-0.57-0.14-0.88-0.14c-0.77,0-1.38,0.25-1.83,0.74c-0.45,0.49-0.67,1.22-0.67,2.18v5.56h-3.64V71.67h3.17l0.28,1.44
			c0.74-1.13,1.76-1.69,3.06-1.69C122.64,71.42,123.17,71.52,123.69,71.71z"/>
		<path class="st0" d="M124.78,81.89l1.39-2.5c0.56,0.34,1.2,0.6,1.93,0.79c0.73,0.19,1.46,0.28,2.19,0.28c1,0,1.51-0.27,1.51-0.81
			c0-0.28-0.14-0.49-0.42-0.63c-0.28-0.14-0.74-0.23-1.39-0.28c-1.45-0.08-2.61-0.44-3.46-1.09c-0.86-0.65-1.29-1.5-1.29-2.55
			c0-1.14,0.46-2.05,1.39-2.72s2.18-1.01,3.75-1.01c0.9,0,1.75,0.11,2.56,0.32c0.81,0.22,1.51,0.52,2.1,0.9l-1.41,2.43
			c-0.87-0.49-1.89-0.74-3.08-0.74c-1.17,0-1.76,0.28-1.76,0.83c0,0.23,0.12,0.41,0.36,0.53c0.24,0.12,0.64,0.22,1.22,0.28
			c1.64,0.12,2.89,0.49,3.74,1.11c0.86,0.62,1.29,1.48,1.29,2.6c0,1.17-0.47,2.1-1.41,2.77c-0.94,0.67-2.25,1.01-3.92,1.01
			C128.04,83.42,126.28,82.91,124.78,81.89z"/>
		<path class="st0" d="M145.36,72.13c0.91,0.47,1.61,1.14,2.1,1.99c0.49,0.86,0.73,1.86,0.73,3c0,0.37-0.04,0.83-0.12,1.37h-8.41
			c0.11,0.59,0.42,1.06,0.95,1.43c0.52,0.36,1.2,0.54,2.02,0.54c0.57,0,1.13-0.08,1.67-0.25c0.54-0.17,1-0.41,1.39-0.72l1.9,2.04
			c-0.65,0.6-1.42,1.07-2.31,1.39c-0.89,0.32-1.83,0.49-2.84,0.49c-1.33,0-2.48-0.24-3.45-0.73c-0.97-0.49-1.72-1.18-2.25-2.07
			c-0.53-0.9-0.79-1.95-0.79-3.17c0-1.17,0.26-2.22,0.78-3.13c0.52-0.91,1.24-1.62,2.17-2.12c0.93-0.5,2-0.75,3.22-0.75
			C143.36,71.42,144.45,71.66,145.36,72.13z M140.46,74.85c-0.46,0.37-0.71,0.89-0.78,1.55h5.05c-0.05-0.66-0.29-1.18-0.73-1.55
			c-0.44-0.37-1.03-0.56-1.77-0.56C141.5,74.29,140.91,74.48,140.46,74.85z"/>
	</g>
	<g>
		<polygon class="st0" points="12.59,59.89 11,64.78 10,61.38 		"/>
		<polygon class="st0" points="24.45,88.62 21.86,90.11 23.45,85.22 		"/>
		<linearGradient id="SVGID_1_" gradientUnits="userSpaceOnUse" x1="9.5212" y1="61.6566" x2="24.9288" y2="88.3434">
			<stop  offset="0" style="stop-color:#29ABE2"/>
			<stop  offset="0.255" style="stop-color:#22A2DC"/>
			<stop  offset="0.6775" style="stop-color:#1088CB"/>
			<stop  offset="0.9944" style="stop-color:#0071BC"/>
		</linearGradient>
		<path class="st1" d="M23.52,67.13l7.29,17.81c1.13-0.65,1.82-1.85,1.82-3.15V68.21c0-1.3-0.69-2.5-1.82-3.15l-10.13-5.85
			l-9.76,23.66L3.63,65.06c-1.13,0.65-1.82,1.85-1.82,3.15v13.59c0,1.3,0.69,2.5,1.82,3.15l10.13,5.85L23.52,67.13z"/>
	</g>
</g>
</svg>
